<svg width="40" height="40" viewBox="0 0 40 40" fill="none" xmlns="http://www.w3.org/2000/svg">
<rect width="40" height="40" rx="10" fill="#EBF3E9"/>
<path d="M11.696 13.0646C11.696 12.5732 12.0484 12.157 12.536 12.096V12.096C12.92 12.032 13.288 12 13.64 12C14.008 12 14.328 12.032 14.6 12.096C14.888 12.144 15.128 12.24 15.32 12.384C15.512 12.528 15.656 12.728 15.752 12.984C15.848 13.24 15.896 13.576 15.896 13.992V22.872C15.896 24.296 15.488 25.368 14.672 26.088C13.856 26.792 12.656 27.144 11.072 27.144C10.24 27.144 9.568 27.016 9.056 26.76C8.688 26.584 8.416 26.344 8.24 26.04C8.08 25.736 8 25.392 8 25.008C8 24.688 8.04 24.408 8.12 24.168V24.168C8.2739 23.7833 8.70535 23.6501 9.11408 23.7183C9.1521 23.7247 9.18874 23.7306 9.224 23.736C9.448 23.752 9.688 23.76 9.944 23.76C10.568 23.76 11.016 23.608 11.288 23.304C11.56 22.984 11.696 22.52 11.696 21.912V13.0646Z" fill="#77B899"/>
<path d="M28.2246 25.2778C27.887 25.965 27.3598 26.5535 26.6274 26.7765C26.6192 26.779 26.6109 26.7815 26.6026 26.784C26.1386 26.928 25.6266 27 25.0666 27C24.3946 27 23.8186 26.904 23.3386 26.712C22.8586 26.504 22.5306 26.224 22.3546 25.872C22.1786 25.504 21.9626 25.032 21.7066 24.456C21.4506 23.864 21.1786 23.208 20.8906 22.488C20.6186 21.768 20.3306 21.008 20.0266 20.208C19.7386 19.392 19.4586 18.568 19.1866 17.736C18.9146 16.904 18.6586 16.088 18.4186 15.288C18.2996 14.8912 18.1884 14.5063 18.0852 14.1332C17.8967 13.4522 18.1039 12.7073 18.7546 12.432V12.432C19.1866 12.24 19.6426 12.144 20.1226 12.144C20.7146 12.144 21.1946 12.272 21.5626 12.528C21.9466 12.768 22.2266 13.224 22.4026 13.896C22.8346 15.464 23.2666 16.968 23.6986 18.408C24.1401 19.8112 24.597 21.2765 25.0696 22.8039C25.0821 22.8444 25.1195 22.872 25.1619 22.872V22.872C25.2049 22.872 25.2428 22.8436 25.2547 22.8022C25.6802 21.3173 26.1136 19.7005 26.5546 17.952C26.9348 16.4969 27.2988 15.0472 27.6468 13.6029C27.7925 12.9981 28.1907 12.4668 28.7866 12.288V12.288C29.1226 12.192 29.4986 12.144 29.9146 12.144C30.5066 12.144 31.0106 12.28 31.4266 12.552C31.8426 12.808 32.0506 13.24 32.0506 13.848C32.0506 14.2 31.9626 14.712 31.7866 15.384C31.6266 16.056 31.4106 16.816 31.1386 17.664C30.8826 18.496 30.5866 19.368 30.2506 20.28C29.9306 21.192 29.6026 22.056 29.2666 22.872C28.9466 23.672 28.6426 24.384 28.3546 25.008C28.3099 25.1024 28.2666 25.1923 28.2246 25.2778Z" fill="#77B899"/>
</svg>
