<svg width="128" height="128" viewBox="0 0 128 128" fill="none" xmlns="http://www.w3.org/2000/svg">
<path d="M33.708 23.8215C36.348 23.8215 37.708 25.1836 37.708 27.8233C37.708 30.0572 36.728 31.359 34.812 31.6684L34.268 31.7287L33.708 31.7367H28.616C26.044 31.7367 24.628 32.938 24.28 35.4572L24.216 36.1162L24.196 36.7992V53.2242C24.196 58.7126 21.632 62.393 16.54 63.7791C20.996 65.6072 23.516 68.6528 24.076 72.8997L24.168 73.8238L24.196 74.776V91.2814C24.196 94.1381 25.288 95.7653 27.46 96.1631L28.024 96.2394L28.616 96.2635H33.708C36.348 96.2635 37.708 97.5934 37.708 100.177C37.708 102.347 36.748 103.656 34.86 104.054L34.324 104.138L33.708 104.179H26.888C22.876 104.179 19.776 102.885 17.644 100.33C16.092 98.4412 15.164 96.0626 14.856 93.1818L14.772 92.0769L14.74 90.9398V75.2903C14.74 72.8555 14.236 71.1238 13.248 70.1434C12.096 68.8376 10.004 68.0823 7.004 67.9135C5.012 67.5921 4 66.2662 4 64.0081C4 61.7461 5.012 60.4162 7.02 60.0867C9.964 59.8376 12.088 59.0943 13.244 57.9452C13.992 57.0854 14.46 55.8921 14.644 54.3653L14.716 53.5738L14.74 52.7099V37.1447C14.74 33.1671 15.7 30.0331 17.64 27.6747C19.388 25.505 21.812 24.2755 24.948 23.926L25.908 23.8456L26.888 23.8215H33.708ZM101.108 23.8215C105.124 23.8215 108.224 25.1153 110.356 27.6706C111.908 29.559 112.836 31.9376 113.144 34.8184L113.228 35.9233L113.26 37.0604V52.7099C113.26 55.1447 113.764 56.8764 114.752 57.8568C115.904 59.1626 117.996 59.918 120.996 60.0867C122.988 60.4081 124 61.734 124 63.9921C124 66.2541 122.988 67.584 120.98 67.9135C118.036 68.1626 115.912 68.9059 114.756 70.055C114.008 70.9148 113.54 72.1081 113.356 73.6349L113.284 74.4264L113.26 75.2903V90.8555C113.26 94.8332 112.3 97.9671 110.36 100.326C108.612 102.495 106.188 103.725 103.052 104.074L102.092 104.155L101.112 104.179H94.292C91.652 104.179 90.292 102.817 90.292 100.177C90.292 97.943 91.272 96.6412 93.188 96.3318L93.732 96.2715L94.292 96.2635H99.384C101.956 96.2635 103.372 95.0622 103.72 92.543L103.784 91.884L103.804 91.201V74.776C103.804 69.2876 106.368 65.6073 111.46 64.2211C107.004 62.393 104.484 59.3474 103.924 55.1005L103.832 54.1764L103.804 53.2242V36.7189C103.804 33.8622 102.712 32.2349 100.54 31.8372L99.976 31.7608L99.384 31.7367H94.292C91.652 31.7367 90.292 30.4068 90.292 27.8233C90.292 25.6537 91.252 24.3439 93.14 23.9461L93.676 23.8617L94.292 23.8215H101.112H101.108Z" fill="#4D4D4D"/>
<path d="M44.7266 93.0781C43.7891 93.0781 42.9688 93.0234 42.2656 92.9141C41.5469 92.8203 40.9375 92.7031 40.4375 92.5625V86.5156C40.9375 86.625 41.4766 86.7266 42.0547 86.8203C42.6172 86.9297 43.2188 86.9844 43.8594 86.9844C44.7031 86.9844 45.4609 86.8203 46.1328 86.4922C46.8047 86.1797 47.3359 85.5781 47.7266 84.6875C48.1172 83.7969 48.3125 82.5156 48.3125 80.8438V48.7344H55.5781V80.7969C55.5781 83.7344 55.1172 86.1016 54.1953 87.8984C53.2891 89.7109 52.0156 91.0234 50.375 91.8359C48.75 92.6641 46.8672 93.0781 44.7266 93.0781Z" fill="#009033"/>
<path d="M81.9219 75.2188C81.9219 77 81.5 78.5078 80.6562 79.7422C79.8281 80.9609 78.5859 81.8906 76.9297 82.5312C75.2734 83.1562 73.2109 83.4688 70.7422 83.4688C68.9141 83.4688 67.3438 83.3516 66.0312 83.1172C64.7344 82.8828 63.4219 82.4922 62.0938 81.9453V76.0391C63.5156 76.6797 65.0391 77.2109 66.6641 77.6328C68.3047 78.0391 69.7422 78.2422 70.9766 78.2422C72.3672 78.2422 73.3594 78.0391 73.9531 77.6328C74.5625 77.2109 74.8672 76.6641 74.8672 75.9922C74.8672 75.5547 74.7422 75.1641 74.4922 74.8203C74.2578 74.4609 73.7422 74.0625 72.9453 73.625C72.1484 73.1719 70.8984 72.5859 69.1953 71.8672C67.5547 71.1797 66.2031 70.4844 65.1406 69.7812C64.0938 69.0781 63.3125 68.25 62.7969 67.2969C62.2969 66.3281 62.0469 65.1016 62.0469 63.6172C62.0469 61.1953 62.9844 59.375 64.8594 58.1562C66.75 56.9219 69.2734 56.3047 72.4297 56.3047C74.0547 56.3047 75.6016 56.4688 77.0703 56.7969C78.5547 57.125 80.0781 57.6484 81.6406 58.3672L79.4844 63.5234C78.1875 62.9609 76.9609 62.5 75.8047 62.1406C74.6641 61.7812 73.5 61.6016 72.3125 61.6016C71.2656 61.6016 70.4766 61.7422 69.9453 62.0234C69.4141 62.3047 69.1484 62.7344 69.1484 63.3125C69.1484 63.7344 69.2812 64.1094 69.5469 64.4375C69.8281 64.7656 70.3594 65.1328 71.1406 65.5391C71.9375 65.9297 73.1016 66.4375 74.6328 67.0625C76.1172 67.6719 77.4062 68.3125 78.5 68.9844C79.5938 69.6406 80.4375 70.4609 81.0312 71.4453C81.625 72.4141 81.9219 73.6719 81.9219 75.2188Z" fill="#B2762E"/>
</svg>
