<svg width="16" height="16" viewBox="0 0 16 16" fill="none" xmlns="http://www.w3.org/2000/svg">
  <path
    d="M12.4733 5.80615C12.4113 5.74366 12.3376 5.69406 12.2563 5.66022C12.1751 5.62637 12.088 5.60895 12 5.60895C11.912 5.60895 11.8248 5.62637 11.7436 5.66022C11.6623 5.69406 11.5886 5.74366 11.5266 5.80615L8.47329 8.85948C8.41132 8.92197 8.33758 8.97156 8.25634 9.00541C8.1751 9.03925 8.08797 9.05668 7.99996 9.05668C7.91195 9.05668 7.82481 9.03925 7.74357 9.00541C7.66233 8.97156 7.5886 8.92197 7.52663 8.85948L4.47329 5.80615C4.41132 5.74366 4.33758 5.69406 4.25634 5.66022C4.1751 5.62637 4.08797 5.60895 3.99996 5.60895C3.91195 5.60895 3.82481 5.62637 3.74357 5.66022C3.66233 5.69406 3.5886 5.74366 3.52663 5.80615C3.40246 5.93105 3.33276 6.10002 3.33276 6.27615C3.33276 6.45227 3.40246 6.62124 3.52663 6.74615L6.58663 9.80615C6.96163 10.1807 7.46996 10.3911 7.99996 10.3911C8.52996 10.3911 9.03829 10.1807 9.41329 9.80615L12.4733 6.74615C12.5975 6.62124 12.6672 6.45227 12.6672 6.27615C12.6672 6.10002 12.5975 5.93105 12.4733 5.80615Z"
    fill="currentColor" />
</svg>