<svg width="24" height="24" viewBox="0 0 24 24" fill="none" xmlns="http://www.w3.org/2000/svg">
  <path
    d="M17.25 3H6.75C5.7558 3.00119 4.80267 3.39666 4.09966 4.09966C3.39666 4.80267 3.00119 5.7558 3 6.75L3 17.25C3.00119 18.2442 3.39666 19.1973 4.09966 19.9003C4.80267 20.6033 5.7558 20.9988 6.75 21H17.25C18.2442 20.9988 19.1973 20.6033 19.9003 19.9003C20.6033 19.1973 20.9988 18.2442 21 17.25V6.75C20.9988 5.7558 20.6033 4.80267 19.9003 4.09966C19.1973 3.39666 18.2442 3.00119 17.25 3ZM19.5 17.25C19.5 17.8467 19.2629 18.419 18.841 18.841C18.419 19.2629 17.8467 19.5 17.25 19.5H6.75C6.15326 19.5 5.58097 19.2629 5.15901 18.841C4.73705 18.419 4.5 17.8467 4.5 17.25V6.75C4.5 6.15326 4.73705 5.58097 5.15901 5.15901C5.58097 4.73705 6.15326 4.5 6.75 4.5H17.25C17.8467 4.5 18.419 4.73705 18.841 5.15901C19.2629 5.58097 19.5 6.15326 19.5 6.75V17.25Z"
    fill="currentColor" />
  <path
    d="M10.3116 14.4507L7.83053 11.9047C7.71181 11.7829 7.55082 11.7145 7.38295 11.7145C7.21507 11.7145 7.05408 11.7829 6.93536 11.9047C6.81667 12.0266 6.75 12.1918 6.75 12.364C6.75 12.5363 6.81667 12.7015 6.93536 12.8233L9.4164 15.3693C9.53398 15.49 9.67358 15.5857 9.82723 15.651C9.98089 15.7164 10.1456 15.75 10.3119 15.75C10.4782 15.75 10.6429 15.7164 10.7965 15.651C10.9502 15.5857 11.0898 15.49 11.2074 15.3693L17.0646 9.3588C17.1833 9.23697 17.25 9.07176 17.25 8.8995C17.25 8.72724 17.1833 8.56203 17.0646 8.44021C16.9459 8.31842 16.7849 8.25 16.6171 8.25C16.4492 8.25 16.2882 8.31842 16.1695 8.44021L10.3116 14.4507Z"
    fill="#14C786" />
</svg>