<svg width="24" height="24" viewBox="0 0 24 24" fill="none" xmlns="http://www.w3.org/2000/svg">
  <path
    d="M17.5417 2.5H12.7917C10.609 2.5 8.83333 4.27571 8.83333 6.45833V11.2083C8.83333 13.391 10.609 15.1667 12.7917 15.1667H17.5417C19.7243 15.1667 21.5 13.391 21.5 11.2083V6.45833C21.5 4.27571 19.7243 2.5 17.5417 2.5ZM19.9167 11.2083C19.9167 12.5178 18.8511 13.5833 17.5417 13.5833H12.7917C11.4823 13.5833 10.4167 12.5178 10.4167 11.2083V6.45833C10.4167 5.14892 11.4823 4.08333 12.7917 4.08333H17.5417C18.8511 4.08333 19.9167 5.14892 19.9167 6.45833V11.2083ZM15.1667 17.5417C15.1667 19.7243 13.391 21.5 11.2083 21.5H6.45833C4.27571 21.5 2.5 19.7243 2.5 17.5417V12.7917C2.5 10.609 4.27571 8.83333 6.45833 8.83333C6.89613 8.83333 7.25 9.188 7.25 9.625C7.25 10.062 6.89613 10.4167 6.45833 10.4167C5.14892 10.4167 4.08333 11.4823 4.08333 12.7917V17.5417C4.08333 18.8511 5.14892 19.9167 6.45833 19.9167H11.2083C12.5178 19.9167 13.5833 18.8511 13.5833 17.5417C13.5833 17.1047 13.9372 16.75 14.375 16.75C14.8128 16.75 15.1667 17.1047 15.1667 17.5417Z"
    fill="currentColor" />
</svg>