<svg width="24" height="24" viewBox="0 0 24 24" fill="none" xmlns="http://www.w3.org/2000/svg">
  <path
    d="M12.009 24C10.3286 23.9899 8.66881 23.629 7.13596 22.9403C5.60311 22.2515 4.23101 21.2503 3.10754 20.0006C1.98407 18.7509 1.13401 17.2803 0.611813 15.683C0.0896137 14.0857 -0.0932128 12.397 0.0750446 10.725C0.374015 8.11409 1.51343 5.67108 3.3216 3.76407C5.12977 1.85706 7.50874 0.58936 10.1 0.151987C11.7741 -0.107745 13.4828 -0.0377669 15.13 0.357987C15.5638 0.469312 15.9597 0.695093 16.2763 1.01173C16.5929 1.32837 16.8187 1.72425 16.93 2.15799C17.0422 2.58779 17.0364 3.03988 16.9132 3.46665C16.79 3.89342 16.554 4.27907 16.23 4.58299C11.671 8.75099 12.065 15.228 17.037 18.995C17.3883 19.2709 17.6592 19.6359 17.8216 20.0519C17.9839 20.468 18.0319 20.92 17.9604 21.3609C17.889 21.8018 17.7007 22.2155 17.4152 22.5589C17.1297 22.9024 16.7574 23.1631 16.337 23.314C14.9398 23.7705 13.4789 24.002 12.009 24ZM12.083 1.99999C11.5223 1.99867 10.9622 2.04113 10.408 2.12699C8.25204 2.49278 6.27298 3.54844 4.76833 5.13533C3.26368 6.72221 2.31471 8.75458 2.06404 10.927C1.90811 12.327 2.05191 13.7442 2.48588 15.0844C2.91985 16.4246 3.63406 17.6571 4.58104 18.7C5.96679 20.1809 7.75271 21.2275 9.7219 21.7128C11.6911 22.1982 13.7589 22.1013 15.674 21.434C15.7563 21.4029 15.8289 21.3506 15.8845 21.2825C15.9401 21.2143 15.9767 21.1327 15.9907 21.0459C16.0047 20.9591 15.9956 20.8701 15.9642 20.788C15.9328 20.7058 15.8804 20.6334 15.812 20.578C9.88305 16.1 9.41705 8.08699 14.865 3.12399C14.9273 3.06588 14.9721 2.99162 14.9945 2.9095C15.0169 2.82738 15.0161 2.74065 14.992 2.65899C14.9713 2.57194 14.9272 2.4922 14.8645 2.4284C14.8017 2.3646 14.7227 2.31916 14.636 2.29699C13.8001 2.09558 12.9429 1.99585 12.083 1.99999ZM20.5 12C20.2771 12 20.0606 11.9255 19.8848 11.7883C19.7091 11.6512 19.5842 11.4592 19.53 11.243L19.172 9.81299L17.74 9.42799C17.5247 9.37002 17.3349 9.24172 17.2008 9.06348C17.0668 8.88525 16.9961 8.66731 17.0001 8.44432C17.0042 8.22133 17.0826 8.00609 17.223 7.83281C17.3634 7.65953 17.5577 7.53815 17.775 7.48799L19.175 7.16299L19.526 5.75699C19.5802 5.54076 19.7051 5.34884 19.8809 5.21171C20.0566 5.07457 20.2731 5.00009 20.496 5.00009C20.719 5.00009 20.9355 5.07457 21.1112 5.21171C21.287 5.34884 21.4119 5.54076 21.466 5.75699L21.821 7.17499L23.239 7.52999C23.4553 7.58418 23.6472 7.70906 23.7843 7.88481C23.9215 8.06055 23.9959 8.27707 23.9959 8.49999C23.9959 8.7229 23.9215 8.93943 23.7843 9.11517C23.6472 9.29091 23.4553 9.4158 23.239 9.46999L21.821 9.82499L21.466 11.243C21.412 11.4586 21.2878 11.65 21.1128 11.7871C20.9379 11.9242 20.7223 11.9991 20.5 12ZM16 14C16 14.2652 16.1054 14.5196 16.2929 14.7071C16.4805 14.8946 16.7348 15 17 15C17.2653 15 17.5196 14.8946 17.7072 14.7071C17.8947 14.5196 18 14.2652 18 14C18 13.7348 17.8947 13.4804 17.7072 13.2929C17.5196 13.1053 17.2653 13 17 13C16.7348 13 16.4805 13.1053 16.2929 13.2929C16.1054 13.4804 16 13.7348 16 14ZM22 18C22 18.2652 22.1054 18.5196 22.2929 18.7071C22.4805 18.8946 22.7348 19 23 19C23.2653 19 23.5196 18.8946 23.7072 18.7071C23.8947 18.5196 24 18.2652 24 18C24 17.7348 23.8947 17.4804 23.7072 17.2929C23.5196 17.1053 23.2653 17 23 17C22.7348 17 22.4805 17.1053 22.2929 17.2929C22.1054 17.4804 22 17.7348 22 18Z"
    fill="currentColor" />
</svg>