<svg width="24" height="24" viewBox="0 0 24 24" fill="none" xmlns="http://www.w3.org/2000/svg">
  <path
    d="M12 17C9.24 17 7 14.76 7 12C7 9.24 9.24 7 12 7C14.76 7 17 9.24 17 12C17 14.76 14.76 17 12 17ZM12 9C10.35 9 9 10.35 9 12C9 13.65 10.35 15 12 15C13.65 15 15 13.65 15 12C15 10.35 13.65 9 12 9ZM13 4V1C13 0.45 12.55 0 12 0C11.45 0 11 0.45 11 1V4C11 4.55 11.45 5 12 5C12.55 5 13 4.55 13 4ZM13 23V20C13 19.45 12.55 19 12 19C11.45 19 11 19.45 11 20V23C11 23.55 11.45 24 12 24C12.55 24 13 23.55 13 23ZM5 12C5 11.45 4.55 11 4 11H1C0.45 11 0 11.45 0 12C0 12.55 0.45 13 1 13H4C4.55 13 5 12.55 5 12ZM24 12C24 11.45 23.55 11 23 11H20C19.45 11 19 11.45 19 12C19 12.55 19.45 13 20 13H23C23.55 13 24 12.55 24 12ZM6.71 6.71C7.1 6.32 7.1 5.69 6.71 5.3L4.71 3.3C4.32 2.91 3.69 2.91 3.3 3.3C2.91 3.69 2.91 4.32 3.3 4.71L5.3 6.71C5.5 6.91 5.75 7 6.01 7C6.27 7 6.52 6.9 6.72 6.71H6.71ZM20.71 20.71C21.1 20.32 21.1 19.69 20.71 19.3L18.71 17.3C18.32 16.91 17.69 16.91 17.3 17.3C16.91 17.69 16.91 18.32 17.3 18.71L19.3 20.71C19.5 20.91 19.75 21 20.01 21C20.27 21 20.52 20.9 20.72 20.71H20.71ZM4.71 20.71L6.71 18.71C7.1 18.32 7.1 17.69 6.71 17.3C6.32 16.91 5.69 16.91 5.3 17.3L3.3 19.3C2.91 19.69 2.91 20.32 3.3 20.71C3.5 20.91 3.75 21 4.01 21C4.27 21 4.52 20.9 4.72 20.71H4.71ZM18.71 6.71L20.71 4.71C21.1 4.32 21.1 3.69 20.71 3.3C20.32 2.91 19.69 2.91 19.3 3.3L17.3 5.3C16.91 5.69 16.91 6.32 17.3 6.71C17.5 6.91 17.75 7 18.01 7C18.27 7 18.52 6.9 18.72 6.71H18.71Z"
    fill="currentColor" />
</svg>