<svg width="24" height="24" viewBox="0 0 24 24" fill="none" xmlns="http://www.w3.org/2000/svg">
  <path
    d="M19 1H5C3.6744 1.00159 2.40356 1.52888 1.46622 2.46622C0.528882 3.40356 0.00158786 4.6744 0 6L0 14C0.00158786 15.3256 0.528882 16.5964 1.46622 17.5338C2.40356 18.4711 3.6744 18.9984 5 19H11V21H7C6.73478 21 6.48043 21.1054 6.29289 21.2929C6.10536 21.4804 6 21.7348 6 22C6 22.2652 6.10536 22.5196 6.29289 22.7071C6.48043 22.8946 6.73478 23 7 23H17C17.2652 23 17.5196 22.8946 17.7071 22.7071C17.8946 22.5196 18 22.2652 18 22C18 21.7348 17.8946 21.4804 17.7071 21.2929C17.5196 21.1054 17.2652 21 17 21H13V19H19C20.3256 18.9984 21.5964 18.4711 22.5338 17.5338C23.4711 16.5964 23.9984 15.3256 24 14V6C23.9984 4.6744 23.4711 3.40356 22.5338 2.46622C21.5964 1.52888 20.3256 1.00159 19 1ZM5 3H19C19.7956 3 20.5587 3.31607 21.1213 3.87868C21.6839 4.44129 22 5.20435 22 6V13H2V6C2 5.20435 2.31607 4.44129 2.87868 3.87868C3.44129 3.31607 4.20435 3 5 3ZM19 17H5C4.38174 16.9974 3.77937 16.8039 3.2753 16.4459C2.77123 16.0879 2.39008 15.5829 2.184 15H21.816C21.6099 15.5829 21.2288 16.0879 20.7247 16.4459C20.2206 16.8039 19.6183 16.9974 19 17Z"
    fill="currentColor" />
</svg>