<svg width="24" height="24" viewBox="0 0 24 24" fill="none" xmlns="http://www.w3.org/2000/svg">
  <path
    d="M12 3C10.22 3 8.47991 3.52784 6.99987 4.51677C5.51983 5.50571 4.36628 6.91131 3.68509 8.55585C3.0039 10.2004 2.82567 12.01 3.17294 13.7558C3.5202 15.5016 4.37737 17.1053 5.63604 18.364C6.89472 19.6226 8.49836 20.4798 10.2442 20.8271C11.99 21.1743 13.7996 20.9961 15.4442 20.3149C17.0887 19.6337 18.4943 18.4802 19.4832 17.0001C20.4722 15.5201 21 13.78 21 12C20.9974 9.61384 20.0484 7.32616 18.3611 5.63889C16.6738 3.95162 14.3862 3.00258 12 3ZM12 19.5C10.5166 19.5 9.0666 19.0601 7.83323 18.236C6.59986 17.4119 5.63856 16.2406 5.07091 14.8701C4.50325 13.4997 4.35473 11.9917 4.64411 10.5368C4.9335 9.08196 5.64781 7.74559 6.6967 6.6967C7.7456 5.64781 9.08197 4.9335 10.5368 4.64411C11.9917 4.35472 13.4997 4.50325 14.8701 5.0709C16.2406 5.63856 17.4119 6.59985 18.236 7.83322C19.0601 9.06659 19.5 10.5166 19.5 12C19.4978 13.9885 18.7069 15.8948 17.3009 17.3009C15.8948 18.7069 13.9885 19.4978 12 19.5Z"
    fill="currentColor" />
  <path
    d="M15.5303 12.5303C15.671 12.3897 15.75 12.1989 15.75 12C15.75 11.8011 15.671 11.6103 15.5303 11.4697C15.3897 11.329 15.1989 11.25 15 11.25H12.75V9C12.75 8.80109 12.671 8.61032 12.5303 8.46967C12.3897 8.32902 12.1989 8.25 12 8.25C11.8011 8.25 11.6103 8.32902 11.4697 8.46967C11.329 8.61032 11.25 8.80109 11.25 9V11.25H9C8.80109 11.25 8.61032 11.329 8.46967 11.4697C8.32902 11.6103 8.25 11.8011 8.25 12C8.25 12.1989 8.32902 12.3897 8.46967 12.5303C8.61032 12.671 8.80109 12.75 9 12.75H11.25V15C11.25 15.1989 11.329 15.3897 11.4697 15.5303C11.6103 15.671 11.8011 15.75 12 15.75C12.1989 15.75 12.3897 15.671 12.5303 15.5303C12.671 15.3897 12.75 15.1989 12.75 15V12.75H15C15.1989 12.75 15.3897 12.671 15.5303 12.5303Z"
    fill="#14C786" />
</svg>