<svg width="24" height="24" viewBox="0 0 24 24" fill="none" xmlns="http://www.w3.org/2000/svg">
  <path
    d="M21 6.75V17.25C21 19.3177 19.3177 21 17.25 21H6.75C4.68225 21 3 19.3177 3 17.25V6.75C3 4.68225 4.68225 3 6.75 3H17.25C19.3177 3 21 4.68225 21 6.75ZM19.5 6.75C19.5 5.5095 18.4905 4.5 17.25 4.5H6.75C5.5095 4.5 4.5 5.5095 4.5 6.75V17.25C4.5 18.4905 5.5095 19.5 6.75 19.5H17.25C18.4905 19.5 19.5 18.4905 19.5 17.25V6.75Z"
    fill="currentColor" />
  <path
    d="M15 12.75C15.414 12.75 15.75 12.4148 15.75 12C15.75 11.5852 15.414 11.25 15 11.25H12.75V9C12.75 8.58525 12.414 8.25 12 8.25C11.586 8.25 11.25 8.58525 11.25 9V11.25H9C8.586 11.25 8.25 11.5852 8.25 12C8.25 12.4148 8.586 12.75 9 12.75H11.25V15C11.25 15.4148 11.586 15.75 12 15.75C12.414 15.75 12.75 15.4148 12.75 15V12.75H15Z"
    fill="#14C786" />
</svg>