<svg width="16" height="16" viewBox="0 0 16 16" fill="none" xmlns="http://www.w3.org/2000/svg">
  <path
    d="M12.4733 5.80615C12.4114 5.74366 12.3376 5.69406 12.2564 5.66022C12.1751 5.62637 12.088 5.60895 12 5.60895C11.912 5.60895 11.8249 5.62637 11.7436 5.66022C11.6624 5.69406 11.5886 5.74366 11.5267 5.80615L8.47333 8.85948C8.41136 8.92197 8.33762 8.97156 8.25639 9.00541C8.17515 9.03925 8.08801 9.05668 8 9.05668C7.91199 9.05668 7.82486 9.03925 7.74362 9.00541C7.66238 8.97156 7.58864 8.92197 7.52667 8.85948L4.47333 5.80615C4.41136 5.74366 4.33762 5.69406 4.25639 5.66022C4.17515 5.62637 4.08801 5.60895 4 5.60895C3.91199 5.60895 3.82486 5.62637 3.74362 5.66022C3.66238 5.69406 3.58864 5.74366 3.52667 5.80615C3.4025 5.93105 3.33281 6.10002 3.33281 6.27615C3.33281 6.45227 3.4025 6.62124 3.52667 6.74615L6.58667 9.80615C6.96167 10.1807 7.47 10.3911 8 10.3911C8.53 10.3911 9.03833 10.1807 9.41333 9.80615L12.4733 6.74615C12.5975 6.62124 12.6672 6.45227 12.6672 6.27615C12.6672 6.10002 12.5975 5.93105 12.4733 5.80615Z"
    fill="currentColor" />
</svg>