<svg width="24" height="24" viewBox="0 0 24 24" fill="none" xmlns="http://www.w3.org/2000/svg">
  <path
    d="M15 9C14.8593 8.8594 14.6686 8.78041 14.4697 8.78041C14.2708 8.78041 14.0801 8.8594 13.9395 9L12 10.9395L10.0605 9C9.91901 8.86338 9.72956 8.78779 9.53291 8.7895C9.33626 8.7912 9.14815 8.87008 9.0091 9.00914C8.87004 9.14819 8.79117 9.3363 8.78946 9.53295C8.78775 9.7296 8.86334 9.91905 8.99996 10.0605L10.9395 12L8.99996 13.9395C8.86334 14.081 8.78775 14.2704 8.78946 14.4671C8.79117 14.6637 8.87004 14.8518 9.0091 14.9909C9.14815 15.1299 9.33626 15.2088 9.53291 15.2105C9.72956 15.2122 9.91901 15.1366 10.0605 15L12 13.0605L13.9395 15C14.0809 15.1366 14.2704 15.2122 14.467 15.2105C14.6637 15.2088 14.8518 15.1299 14.9908 14.9909C15.1299 14.8518 15.2088 14.6637 15.2105 14.4671C15.2122 14.2704 15.1366 14.081 15 13.9395L13.0605 12L15 10.0605C15.1406 9.91985 15.2196 9.72912 15.2196 9.53025C15.2196 9.33138 15.1406 9.14065 15 9Z"
    fill="#DA0000" />
  <path
    d="M12 3C10.22 3 8.47991 3.52784 6.99987 4.51677C5.51983 5.50571 4.36628 6.91131 3.68509 8.55585C3.0039 10.2004 2.82567 12.01 3.17294 13.7558C3.5202 15.5016 4.37737 17.1053 5.63604 18.364C6.89472 19.6226 8.49836 20.4798 10.2442 20.8271C11.99 21.1743 13.7996 20.9961 15.4442 20.3149C17.0887 19.6337 18.4943 18.4802 19.4832 17.0001C20.4722 15.5201 21 13.78 21 12C20.9974 9.61384 20.0484 7.32616 18.3611 5.63889C16.6738 3.95162 14.3862 3.00258 12 3ZM12 19.5C10.5166 19.5 9.0666 19.0601 7.83323 18.236C6.59986 17.4119 5.63856 16.2406 5.07091 14.8701C4.50325 13.4997 4.35473 11.9917 4.64411 10.5368C4.9335 9.08197 5.64781 7.74559 6.6967 6.6967C7.7456 5.64781 9.08197 4.9335 10.5368 4.64411C11.9917 4.35472 13.4997 4.50325 14.8701 5.0709C16.2406 5.63856 17.4119 6.59985 18.236 7.83322C19.0601 9.06659 19.5 10.5166 19.5 12C19.4978 13.9885 18.7069 15.8948 17.3009 17.3009C15.8948 18.7069 13.9885 19.4978 12 19.5Z"
    fill="currentColor" />
</svg>