<svg xmlns="http://www.w3.org/2000/svg" viewBox="0 0 24 24" width="512" height="512">
  <path
    d="m23.34,9.481l-3.5-6c-.893-1.53-2.548-2.481-4.319-2.481h-7.069c-1.771,0-3.427.951-4.319,2.481L.632,9.481c-.905,1.553-.905,3.483,0,5.038l3.501,6c.893,1.53,2.547,2.48,4.318,2.48h7.069c1.771,0,3.426-.95,4.319-2.48l3.5-6.001c.905-1.554.905-3.484,0-5.038Zm-7.34,3.519h-3v3c0,.553-.447,1-1,1s-1-.447-1-1v-3h-3c-.553,0-1-.448-1-1s.447-1,1-1h3v-3c0-.552.447-1,1-1s1,.448,1,1v3h3c.553,0,1,.448,1,1s-.447,1-1,1Z" />
</svg>