<svg width="24" height="24" viewBox="0 0 24 24" fill="none" xmlns="http://www.w3.org/2000/svg">
  <path
    d="M12 3C10.22 3 8.47991 3.52784 6.99987 4.51677C5.51983 5.50571 4.36628 6.91131 3.68509 8.55585C3.0039 10.2004 2.82567 12.01 3.17294 13.7558C3.5202 15.5016 4.37737 17.1053 5.63604 18.364C6.89472 19.6226 8.49836 20.4798 10.2442 20.8271C11.99 21.1743 13.7996 20.9961 15.4442 20.3149C17.0887 19.6337 18.4943 18.4802 19.4832 17.0001C20.4722 15.5201 21 13.78 21 12C20.9974 9.61384 20.0484 7.32616 18.3611 5.63889C16.6738 3.95162 14.3862 3.00258 12 3ZM12 19.5C10.5166 19.5 9.0666 19.0601 7.83323 18.236C6.59986 17.4119 5.63856 16.2406 5.07091 14.8701C4.50325 13.4997 4.35473 11.9917 4.64411 10.5368C4.9335 9.08196 5.64781 7.74559 6.6967 6.6967C7.7456 5.64781 9.08197 4.9335 10.5368 4.64411C11.9917 4.35472 13.4997 4.50325 14.8701 5.0709C16.2406 5.63856 17.4119 6.59985 18.236 7.83322C19.0601 9.06659 19.5 10.5166 19.5 12C19.4978 13.9885 18.7069 15.8948 17.3009 17.3009C15.8948 18.7069 13.9885 19.4978 12 19.5Z"
    fill="currentColor" />
  <path
    d="M10.8493 13.9605L8.86443 11.9238C8.76945 11.8264 8.64065 11.7716 8.50636 11.7716C8.37206 11.7716 8.24326 11.8264 8.14829 11.9238C8.05334 12.0212 8 12.1534 8 12.2912C8 12.429 8.05334 12.5612 8.14829 12.6587L10.1331 14.6954C10.2272 14.792 10.3389 14.8686 10.4618 14.9208C10.5847 14.9731 10.7165 15 10.8495 15C10.9826 15 11.1143 14.9731 11.2372 14.9208C11.3602 14.8686 11.4718 14.792 11.5659 14.6954L16.2517 9.88704C16.3467 9.78958 16.4 9.65741 16.4 9.5196C16.4 9.38179 16.3467 9.24962 16.2517 9.15216C16.1567 9.05473 16.0279 9 15.8936 9C15.7593 9 15.6306 9.05473 15.5356 9.15216L10.8493 13.9605Z"
    fill="#14C786" />
</svg>