<svg width="24" height="24" viewBox="0 0 24 24" fill="none" xmlns="http://www.w3.org/2000/svg">
  <path
    d="M17.25 3H6.75C4.68225 3 3 4.68225 3 6.75V17.25C3 19.3177 4.68225 21 6.75 21H17.25C19.3177 21 21 19.3177 21 17.25V6.75C21 4.68225 19.3177 3 17.25 3ZM19.5 17.25C19.5 18.4905 18.4905 19.5 17.25 19.5H6.75C5.5095 19.5 4.5 18.4905 4.5 17.25V6.75C4.5 5.5095 5.5095 4.5 6.75 4.5H17.25C18.4905 4.5 19.5 5.5095 19.5 6.75V17.25ZM13.4092 7.78425L8.379 12.8145C7.81275 13.3808 7.5 14.1345 7.5 14.9355V16.125C7.5 16.5397 7.836 16.875 8.25 16.875H9.4395C10.2405 16.875 10.9942 16.563 11.5605 15.996L16.5908 10.9658C17.4683 10.0883 17.4683 8.66175 16.5908 7.78425C15.7403 6.9345 14.259 6.9345 13.4092 7.78425ZM10.5 14.9355C10.2203 15.2145 9.834 15.375 9.4395 15.375H9V14.9355C9 14.535 9.156 14.1585 9.4395 13.875L12.627 10.6875L13.6875 11.748L10.5 14.9355ZM15.5303 9.90525L14.748 10.6875L13.6875 9.627L14.4698 8.84475C14.7525 8.5605 15.2468 8.5605 15.5303 8.84475C15.8228 9.13725 15.8228 9.61275 15.5303 9.90525Z"
    fill="currentColor" />
</svg>