<svg width="24" height="24" viewBox="0 0 24 24" fill="none" xmlns="http://www.w3.org/2000/svg">
<path d="M6.75 3H12.25V4.5H6.75C5.5095 4.5 4.5 5.5095 4.5 6.75V17.25C4.5 18.4905 5.5095 19.5 6.75 19.5H17.25C18.4905 19.5 19.5 18.4905 19.5 17.25V11.75H21V17.25C21 19.3177 19.3177 21 17.25 21H6.75C4.68225 21 3 19.3177 3 17.25V6.75C3 4.68225 4.68225 3 6.75 3Z" fill="currentColor"/>
<path d="M20.0134 3H16.0669C15.8053 3.00003 15.5544 3.10399 15.3694 3.28902C15.1844 3.47404 15.0804 3.72497 15.0804 3.98662C15.0804 4.24827 15.1844 4.4992 15.3694 4.68422C15.5544 4.86925 15.8053 4.97321 16.0669 4.97324H17.6307L11.2892 11.3148C10.9108 11.6932 10.9147 12.3364 11.2892 12.7109C11.6675 13.0892 12.3107 13.0854 12.6852 12.7109L19.0268 6.36931V7.9331C19.0268 8.19475 19.1308 8.44567 19.3158 8.63067C19.5008 8.81567 19.7518 8.9196 20.0134 8.9196C20.2751 8.9196 20.526 8.81567 20.711 8.63067C20.896 8.44567 21 8.19475 21 7.9331V3.98662C21 3.72495 20.8961 3.474 20.7111 3.28897C20.526 3.10395 20.2751 3 20.0134 3Z" fill="currentColor"/>
</svg>
