<svg width="24" height="24" viewBox="0 0 24 24" fill="none" xmlns="http://www.w3.org/2000/svg">
  <path
    d="M18.75 6H16.425C16.2509 5.15356 15.7904 4.39301 15.1209 3.84654C14.4515 3.30007 13.6142 3.00109 12.75 3L11.25 3C10.3858 3.00109 9.54849 3.30007 8.87906 3.84654C8.20963 4.39301 7.74907 5.15356 7.575 6H5.25C5.05109 6 4.86032 6.07902 4.71967 6.21967C4.57902 6.36032 4.5 6.55109 4.5 6.75C4.5 6.94891 4.57902 7.13968 4.71967 7.28033C4.86032 7.42098 5.05109 7.5 5.25 7.5H6V17.25C6.00119 18.2442 6.39666 19.1973 7.09966 19.9003C7.80267 20.6033 8.7558 20.9988 9.75 21H14.25C15.2442 20.9988 16.1973 20.6033 16.9003 19.9003C17.6033 19.1973 17.9988 18.2442 18 17.25V7.5H18.75C18.9489 7.5 19.1397 7.42098 19.2803 7.28033C19.421 7.13968 19.5 6.94891 19.5 6.75C19.5 6.55109 19.421 6.36032 19.2803 6.21967C19.1397 6.07902 18.9489 6 18.75 6ZM11.25 4.5H12.75C13.2152 4.50057 13.6688 4.64503 14.0487 4.91358C14.4286 5.18213 14.7161 5.56162 14.8717 6H9.12825C9.28394 5.56162 9.57143 5.18213 9.95129 4.91358C10.3312 4.64503 10.7848 4.50057 11.25 4.5ZM16.5 17.25C16.5 17.8467 16.2629 18.419 15.841 18.841C15.419 19.2629 14.8467 19.5 14.25 19.5H9.75C9.15326 19.5 8.58097 19.2629 8.15901 18.841C7.73705 18.419 7.5 17.8467 7.5 17.25V7.5H16.5V17.25Z"
    fill="currentColor" />
  <path
    d="M10.5 16.5C10.6989 16.5 10.8897 16.421 11.0303 16.2803C11.171 16.1397 11.25 15.9489 11.25 15.75V11.25C11.25 11.0511 11.171 10.8603 11.0303 10.7197C10.8897 10.579 10.6989 10.5 10.5 10.5C10.3011 10.5 10.1103 10.579 9.96967 10.7197C9.82902 10.8603 9.75 11.0511 9.75 11.25V15.75C9.75 15.9489 9.82902 16.1397 9.96967 16.2803C10.1103 16.421 10.3011 16.5 10.5 16.5Z"
    fill="#DA0000" />
  <path
    d="M13.5 16.5C13.6989 16.5 13.8897 16.421 14.0303 16.2803C14.171 16.1397 14.25 15.9489 14.25 15.75V11.25C14.25 11.0511 14.171 10.8603 14.0303 10.7197C13.8897 10.579 13.6989 10.5 13.5 10.5C13.3011 10.5 13.1103 10.579 12.9697 10.7197C12.829 10.8603 12.75 11.0511 12.75 11.25V15.75C12.75 15.9489 12.829 16.1397 12.9697 16.2803C13.1103 16.421 13.3011 16.5 13.5 16.5Z"
    fill="#DA0000" />
</svg>